# xmcd CD database file
#
# Track frame offsets:
#	150
#	18385
#	32121
#
# Disc length: 633 seconds
#
# Revision: 0
# Processed by: cddbd v1.5.1PL0 Copyright (c) Steve Scherf et al.
# Submitted via: CDex 1.51
#
DISCID=1b027703
DTITLE=NICOTINE - 太陽の樹の下で〜THE TREE OF THE SUN〜
DYEAR=2004
DGENRE=Punk Rock
TTITLE0=太陽の樹の下で〜THE TREE OF THE SUN〜
TTITLE1=CHANGE
TTITLE2=LA ISLA BONITA
EXTD=YEAR: 2004
EXTT0=
EXTT1=
EXTT2=
PLAYORDER=
